<?xml version="1.0" standalone="no"?>
<!DOCTYPE svg PUBLIC "-//W3C//DTD SVG 20010904//EN"
 "http://www.w3.org/TR/2001/REC-SVG-20010904/DTD/svg10.dtd">
<svg version="1.0" xmlns="http://www.w3.org/2000/svg"
 width="512.000000pt" height="512.000000pt" viewBox="0 0 512.000000 512.000000"
 preserveAspectRatio="xMidYMid meet">
<metadata>
Created by potrace 1.14, written by Peter Selinger 2001-2017
</metadata>
<g transform="translate(0.000000,512.000000) scale(0.100000,-0.100000)"
fill="#000000" stroke="none">
<path d="M2315 4870 c-11 -4 -114 -103 -228 -219 -114 -116 -211 -211 -214
-211 -3 0 -33 17 -67 38 -273 171 -604 292 -901 329 -72 9 -297 9 -385 0 -134
-13 -311 -62 -425 -117 -81 -40 -98 -69 -90 -158 3 -37 7 -74 10 -82 2 -8 7
-35 10 -60 4 -25 19 -99 35 -165 118 -495 367 -944 697 -1258 l53 -50 0 -90 0
-91 -80 -118 c-81 -120 -91 -148 -66 -184 13 -18 9 -25 -41 -87 -47 -58 -57
-66 -73 -57 -35 18 -67 0 -137 -78 -37 -42 -129 -137 -204 -212 -75 -74 -142
-145 -148 -157 -15 -30 -14 -93 4 -126 8 -15 47 -58 86 -95 87 -81 106 -99
243 -226 l106 -98 -20 -27 c-58 -74 -72 -101 -66 -125 9 -38 31 -54 102 -76
36 -11 69 -22 74 -25 5 -3 -10 -40 -32 -83 -62 -116 -43 -156 79 -167 34 -3
77 -7 95 -9 18 -2 65 -7 103 -11 39 -3 86 -8 105 -10 19 -2 62 -7 95 -10 33
-3 78 -8 100 -10 22 -2 69 -7 105 -10 36 -3 76 -8 90 -10 14 -2 54 -7 90 -10
36 -4 90 -15 120 -25 31 -10 225 -104 431 -208 206 -104 402 -199 434 -212 79
-30 206 -33 285 -6 30 11 236 111 458 222 221 112 402 201 402 198 0 -2 8 0
19 5 21 12 118 28 211 36 66 5 137 13 200 20 19 2 64 7 100 10 36 3 81 8 100
10 19 2 62 7 95 10 33 3 76 8 95 10 19 2 66 7 104 11 54 5 75 12 93 30 32 32
29 55 -18 141 -22 41 -39 76 -37 77 2 1 23 8 48 15 108 29 142 57 134 109 -4
22 -39 76 -73 111 -15 16 -35 -5 248 261 73 69 136 127 141 130 4 3 17 21 29
40 23 38 27 99 9 133 -6 12 -86 96 -178 187 -161 159 -272 284 -376 420 -67
89 -194 281 -195 297 -1 18 -1 64 0 116 1 39 8 48 104 147 237 242 392 484
542 845 99 238 195 681 165 760 -13 35 -31 50 -97 80 -108 50 -283 98 -408
112 -86 10 -297 10 -386 0 -141 -15 -350 -68 -499 -127 -124 -48 -347 -157
-380 -185 -8 -6 -35 -23 -58 -37 l-44 -26 -89 91 c-49 49 -89 95 -89 101 0 6
6 22 13 36 7 14 23 51 36 83 20 49 22 61 11 86 -24 60 -44 59 -281 -15 -118
-36 -249 -77 -292 -90 -42 -12 -82 -26 -87 -29 -9 -5 -22 33 -36 103 -11 57
-63 91 -109 72z"/>
</g>
</svg>
